<?xml version="1.0" encoding="utf-8"?>
<!-- Generator: Adobe Illustrator 18.1.1, SVG Export Plug-In . SVG Version: 6.00 Build 0)  -->
<svg version="1.1" id="Layer_1" xmlns="http://www.w3.org/2000/svg" xmlns:xlink="http://www.w3.org/1999/xlink" x="0px" y="0px"
	 viewBox="0 0 400 400" enable-background="new 0 0 400 400" xml:space="preserve">
<g>
	<g>
		<path fill="#FEFEFE" d="M-5,1.1c133.6,0,267.2,0,400.9,0c0,133.2,0,266.4,0,399.8c-133.5,0-267.2,0-400.9,0
			C-5,267.7-5,134.4-5,1.1z M166,209c11.3-5.4,22.6-10.8,34-16.2c11.9,5.2,23.8,10.5,36.1,15.9c0-6,0.2-11.3-0.1-16.6
			c-0.1-1.3-1.2-3.2-2.3-3.8c-9.7-4.7-19.5-9.2-29.4-13.5c-1.9-0.8-4.7-1.1-6.6-0.3c-5.8,2.4-11.3,5.5-16.9,8.3
			c-4.9,2-9.9,4.1-14.8,6.1c-1.5-0.1-2.9-0.2-3.2-0.2c0.8,2.2,1.9,4.2,2.2,6.3C165.5,199.7,165.7,204.4,166,209z M340.9,242.3
			c2.9,1.2,5.7,3.2,8.6,3.4c8.7,0.5,17.5,0.2,26.4,0.2c0.1,3,0.3,5.4,0.4,8.2c5.1-1,9.8-1.9,14.5-2.9c0-3.4,0-6.2,0-9
			c-0.1-6.7-1.5-8.1-8.2-8.2c-11.3,0-22.6,0.1-33.9-0.1c-3.9-0.1-6.8,0.9-8.6,4.3c-1-0.9-1.9-1.9-2.9-2.7
			c-4.5-3.1-11.9-0.8-12.3,4.4c-0.6,8-0.2,16.1-0.2,24.8c4.2-0.9,7.7-1.8,11.3-2.3c3.3-0.5,4.4-2,4.4-5.3
			C340.2,252.1,340.7,247.2,340.9,242.3z M340.9,293.7c-0.3-5.8-0.6-11.6-0.9-18c-4.8,0.9-9.3,1.7-13.7,2.8
			c-0.7,0.2-1.6,1.7-1.7,2.6c-0.2,4.1-0.5,8.3-0.2,12.4c0.5,6.5,7.6,9.5,12.9,5.6c1.1-0.8,2.4-1.4,3.6-2c1.7,1.3,3.3,3.7,5.1,3.7
			c13,0.3,25.9,0.3,38.9-0.1c2.1-0.1,5.7-3,5.8-4.7c0.6-10,0.3-20.1,0.3-30.6c-5.2,1.1-9.9,2.1-15.1,3.2c0,6.9,0,13.6,0,20.5
			c-9.8,0-18.9,0-28,0C344.4,289,341.5,289.6,340.9,293.7z M239.4,247c-2.1-2.6-3.5-4.4-5-6.2c-7.3-8.6-11.9-8.6-19.5-0.2
			c-4.1,4.5-8.3,9-11.7,12.8c-6.2-5.8-12.1-11.4-18.1-16.9c-3.7-3.3-8-3.8-11.8-0.7c-3.6,3-6.5,6.8-10.3,10.9c3.2-0.2,5.3-0.3,8-0.5
			c0,2.3,0,4.1,0,5.9c0,13.3,0,26.7,0,40c0,5.1,2.9,8.3,7.2,8.5c4.6,0.2,7.9-2.9,8.5-8c0.2-1.5,0.1-3,0.1-4.5c0-9.5,0-19.1,0-27.7
			c5.2,2.5,10.4,6.9,15.3,6.7c5-0.2,9.8-4.9,14.7-7.6c0,0.8,0,2.1,0,3.4c-0.1,10.1-0.2,20.3-0.2,30.4c0,4.5,2.6,7.3,6.9,7.8
			c4.5,0.5,7.3-2,8.4-6.2c0.5-1.9,0.7-3.9,0.7-5.9c0.1-12.2,0-24.3,0-36.5c0-1.7,0.2-3.5,0.4-5.4C235.3,247,237,247,239.4,247z
			 M70.8,289c0-12.4,0-24,0-35.6c0-4,0.1-8-0.3-12c-0.4-4.4-3-7-7.6-7c-5,0-7.7,2.6-8,7.6c-0.1,2.2,0,4.3,0,6.5c0,9.5,0,19.1,0,27.4
			c-5.1-2.7-9.9-6.4-15.3-7.8c-6.6-1.7-9.8,5.2-15.4,9.5c0-12.7,0.1-24-0.1-35.3c-0.1-5.1-3-7.5-8-7.4c-5.1,0.1-7.8,3.6-7.7,10.1
			c0.1,12.3,0.2,24.6,0.3,37c0,2.3,0,4.5,0,7c-2.2,0-3.8,0-5.9,0c2.1,2.6,3.8,4.7,5.6,6.9c6,7.3,11.5,7.3,17.7,0.4
			c4.3-4.8,8.7-9.6,12.7-13.9c5.3,5.1,10.4,9.9,15.4,14.7c4.7,4.5,10.1,5.5,14.3,1.7c3.3-3,6-6.6,9.3-10.4
			C75.3,288.7,73.5,288.8,70.8,289z M124.5,245.9c4,0,7.5,0,11,0c6.5,0,13,0.1,19.5-0.1c3.5-0.1,6.2-1.7,6.2-5.7
			c0.1-4.1-2.8-5.3-6.2-5.7c-0.7-0.1-1.3-0.1-2-0.1c-11.8,0-23.6-0.1-35.4-0.1c-6.3,0-8.9,2.1-9,8.1c-0.1,17.5,0.1,34.9,0.4,52.4
			c0.1,3.9,2.7,6.2,6.4,6.2c13.8,0.1,27.6,0.1,41.4-0.1c3.3,0,5.9-1.6,6-5.3c0.1-3.9-2.3-5.7-6-5.8c-7-0.1-14-0.1-21-0.1
			c-3.8,0-7.5,0-11.4,0C124.5,274.7,124.5,260.6,124.5,245.9z M302.7,268.9c-5.7-10.6-11-20.9-16.7-31c-2.9-5.1-11.6-5.3-14.3-0.4
			c-7.7,14-15,28.1-22.7,42.6c10.8-2.1,22.5-1.6,25.9-15.4c0.6-2.3,2.3-4.4,3.6-6.9c0.8,1.2,1.5,2.1,2.1,3.1c6.8,12,6.8,12,20.1,8.9
			C301.2,269.7,301.6,269.4,302.7,268.9z M152.6,172.9c3.9-7.3,7.5-13.6,10.7-20.1c0.7-1.3,0.3-3.6-0.4-5.1
			c-5.1-11-10.3-21.9-15.6-32.9c-0.5-1.1-1.7-2.5-2.5-2.6c-6.9-0.2-13.7-0.1-21.3-0.1C133.3,132.6,142.7,152.1,152.6,172.9z
			 M247,173.4c10.4-20.9,20.2-40.8,30.4-61.4c-7,0-13.2-0.2-19.3,0.1c-1.4,0.1-3.2,1.6-3.8,2.9c-5.5,10.6-10.8,21.4-16.1,32.1
			c-0.7,1.4-1.4,3.4-0.9,4.6C240.3,158.8,243.5,165.6,247,173.4z M84,266.4c0.1,0,0.1,0,0.2,0c0,8.5-0.1,17,0,25.4
			c0.1,5.5,3.3,8.7,8.2,8.5c4.7-0.2,7.4-3.3,7.5-8.7c0.1-4.7-0.1-9.3-0.1-14c-0.1-11.6,0-23.3-0.2-34.9c-0.1-6.2-3-8.9-8.4-8.9
			c-5.1,0.1-7.3,2.9-7.3,9.1C84,250.8,84,258.6,84,266.4z M212.7,154c-0.6-3-0.2-6.5-1.7-7.8c-3.2-2.7-7.4-5.6-11.3-5.7
			c-3.3-0.1-7.2,3.1-10,5.8c-1.5,1.4-1.6,4.7-1.6,7.2c-0.1,2.7-0.3,6.4,1.2,7.9c2.9,2.8,7,5.8,10.6,5.8c3.6,0,7.6-3,10.6-5.7
			C212.2,160,212.1,156.4,212.7,154z M293.8,285.5c2.3,4.1,4.2,7.9,6.5,11.5c2.5,4,6.8,4.6,11.3,1.9c4.2-2.5,4.7-4.7,2.2-9.6
			c-3.7-7.3-3.7-7.2-11.8-5.5C299.4,284.3,296.9,284.8,293.8,285.5z M242.2,294.6c2.1,4.3,5.6,6,9.4,6c4.9,0,6.1-4.3,8-8
			C253.9,293.3,248.4,293.9,242.2,294.6z M289.2,335.3c0.3-2,1.1-4.2,0.6-6.1c-0.4-1.5-2.3-2.6-3.6-3.9c-1.1,1.1-2.7,2-3.1,3.3
			C281.9,332.5,284,334.6,289.2,335.3z M163.8,323.4c-1.3,3.2-2.8,5.1-2.5,6.8c0.2,1.4,2.4,2.5,3.8,3.7c1.3-1.4,3.8-3.1,3.6-4.2
			C168.3,327.8,166.2,326.3,163.8,323.4z M192.9,323.9c-1.8,2.8-3.9,4.6-3.6,5.9c0.4,1.8,2.5,3.2,3.9,4.8c1.3-1.5,3.4-3,3.5-4.6
			C196.9,328.4,194.9,326.7,192.9,323.9z M265.9,330c-2.6-2-4.2-3.2-5.8-4.4c-1,1.4-2.6,2.6-3,4.2c-0.8,2.9,1.3,4.6,3.8,4.4
			C262.2,334.1,263.5,332.2,265.9,330z M280.9,329.9c-2.4-1.9-4-3.1-5.6-4.3c-1.1,1.6-3.2,3.3-3,4.7c0.2,1.6,2.4,2.9,3.8,4.3
			C277.4,333.2,278.7,332,280.9,329.9z M218.3,330.6c2.1-0.2,4-0.4,5.9-0.6c0.1-3.3-0.9-5.8-4.1-4.7c-1.8,0.6-3,3.3-3.9,5.3
			c-0.4,0.8,0.9,2.3,1.4,3.5c0.3-0.1,0.7-0.2,1-0.3C218.5,332.7,218.4,331.7,218.3,330.6z M235.3,335.7c2.8-3.7-1.1-10.8,7.5-9.6
			c-4.9,0.7-6-2.1-7.5-5C235.3,325.6,235.3,330.1,235.3,335.7z M105.1,323.5c0,3.7,0,7.3,0,11.6c4-4.1-2-10.6,5.3-13
			c-3.6,0-6.4,0-9.2,0c0,0.2,0,0.4-0.1,0.7C102.4,323,103.6,323.2,105.1,323.5z M267.3,334.3c0.3,0,0.6,0,0.9,0c0-4.4,0-8.7,0-13.1
			c-0.3,0-0.6,0-0.9,0C267.3,325.5,267.3,329.9,267.3,334.3z M139.1,322c-0.7-0.1-1.4-0.1-2.1-0.2c-0.3,4.2-0.6,8.4-0.9,12.6
			c0.5,0,1,0.1,1.5,0.1C138,330.3,138.5,326.2,139.1,322z M125.9,325.4c-0.1-0.1-0.2-0.3-0.3-0.3c-0.1,0-0.2,0.2-0.4,0.3
			c0.2,0.1,0.3,0.2,0.5,0.4C125.7,325.6,125.8,325.5,125.9,325.4z M142.4,331.2c-0.1,0.1-0.2,0.2-0.2,0.3c0.1,0.1,0.2,0.2,0.3,0.3
			c0.1-0.2,0.1-0.4,0.2-0.6C142.6,331.2,142.5,331.2,142.4,331.2z"/>
		<path fill="#3C4197" d="M239.4,247c-2.5,0-4.1,0-6.3,0c-0.1,1.9-0.4,3.6-0.4,5.4c0,12.2,0,24.3,0,36.5c0,2-0.2,4-0.7,5.9
			c-1.1,4.2-3.9,6.7-8.4,6.2c-4.4-0.5-6.9-3.3-6.9-7.8c0-10.1,0.1-20.3,0.2-30.4c0-1.3,0-2.6,0-3.4c-4.8,2.7-9.6,7.5-14.7,7.6
			c-5,0.2-10.1-4.2-15.3-6.7c0,8.6,0,18.2,0,27.7c0,1.5,0.1,3-0.1,4.5c-0.6,5.1-3.9,8.2-8.5,8c-4.3-0.2-7.2-3.4-7.2-8.5
			c-0.1-13.3,0-26.7,0-40c0-1.8,0-3.6,0-5.9c-2.7,0.2-4.8,0.3-8,0.5c3.8-4.1,6.7-8,10.3-10.9c3.8-3.1,8.2-2.6,11.8,0.7
			c6,5.5,11.9,11.1,18.1,16.9c3.5-3.8,7.6-8.2,11.7-12.8c7.6-8.4,12.2-8.4,19.5,0.2C235.9,242.5,237.3,244.4,239.4,247z"/>
		<path fill="#3C4197" d="M70.8,289c2.7-0.2,4.5-0.3,7.1-0.5c-3.3,3.8-6,7.4-9.3,10.4c-4.1,3.7-9.5,2.8-14.3-1.7
			c-5-4.8-10.1-9.6-15.4-14.7c-4,4.4-8.4,9.1-12.7,13.9c-6.2,7-11.8,6.9-17.7-0.4c-1.8-2.1-3.5-4.3-5.6-6.9c2.1,0,3.7,0,5.9,0
			c0-2.5,0-4.8,0-7c-0.1-12.3-0.2-24.6-0.3-37c-0.1-6.5,2.6-10,7.7-10.1c5-0.1,7.9,2.3,8,7.4c0.2,11.3,0.1,22.6,0.1,35.3
			c5.5-4.3,8.8-11.3,15.4-9.5c5.4,1.4,10.3,5.1,15.3,7.8c0-8.3,0-17.9,0-27.4c0-2.2-0.1-4.3,0-6.5c0.3-5,3-7.6,8-7.6
			c4.6,0,7.2,2.6,7.6,7c0.4,4,0.3,8,0.3,12C70.8,265,70.8,276.6,70.8,289z"/>
		<path fill="#3C4197" d="M124.5,245.9c0,14.7,0,28.8,0,43.7c3.9,0,7.6,0,11.4,0c7,0,14,0,21,0.1c3.7,0.1,6.1,1.9,6,5.8
			c-0.1,3.7-2.7,5.3-6,5.3c-13.8,0.1-27.6,0.2-41.4,0.1c-3.8,0-6.4-2.3-6.4-6.2c-0.2-17.5-0.5-34.9-0.4-52.4c0-6,2.7-8.1,9-8.1
			c11.8,0,23.6,0,35.4,0.1c0.7,0,1.3,0,2,0.1c3.4,0.4,6.3,1.6,6.2,5.7c0,4-2.8,5.6-6.2,5.7c-6.5,0.2-13,0.1-19.5,0.1
			C132,245.9,128.6,245.9,124.5,245.9z"/>
		<path fill="#3C4198" d="M302.7,268.9c-1.1,0.5-1.5,0.8-1.9,0.9c-13.4,3.1-13.4,3.1-20.1-8.9c-0.6-1-1.3-1.9-2.1-3.1
			c-1.4,2.5-3.1,4.6-3.6,6.9c-3.5,13.8-15.1,13.3-25.9,15.4c7.7-14.5,15-28.6,22.7-42.6c2.7-4.9,11.4-4.7,14.3,0.4
			C291.7,248,297,258.3,302.7,268.9z"/>
		<path fill="#C22481" d="M152.6,172.9c-9.9-20.7-19.3-40.3-29.1-60.8c7.5,0,14.4-0.1,21.3,0.1c0.9,0,2,1.5,2.5,2.6
			c5.3,10.9,10.5,21.8,15.6,32.9c0.7,1.5,1,3.7,0.4,5.1C160.1,159.2,156.6,165.6,152.6,172.9z"/>
		<path fill="#E12084" d="M247,173.4c-3.5-7.8-6.8-14.6-9.6-21.6c-0.5-1.2,0.2-3.2,0.9-4.6c5.3-10.8,10.6-21.5,16.1-32.1
			c0.7-1.3,2.5-2.8,3.8-2.9c6.1-0.3,12.3-0.1,19.3-0.1C267.3,132.6,257.4,152.5,247,173.4z"/>
		<path fill="#3C4198" d="M84,266.4c0-7.8,0-15.6,0-23.4c0-6.2,2.2-9,7.3-9.1c5.4-0.1,8.3,2.7,8.4,8.9c0.2,11.6,0.1,23.3,0.2,34.9
			c0,4.7,0.2,9.3,0.1,14c-0.1,5.4-2.8,8.6-7.5,8.7c-4.9,0.2-8.2-3-8.2-8.5c-0.1-8.5,0-17,0-25.4C84.1,266.4,84,266.4,84,266.4z"/>
		<path fill="#3C4198" d="M340.9,293.7c0.6-4.1,3.4-4.7,6.9-4.7c9.1,0,18.3,0,28,0c0-6.9,0-13.6,0-20.5c5.2-1.1,9.9-2.1,15.1-3.2
			c0,10.4,0.3,20.5-0.3,30.6c-0.1,1.8-3.7,4.7-5.8,4.7c-12.9,0.5-25.9,0.4-38.9,0.1c-1.7,0-3.4-2.4-5.1-3.7
			C341,295.9,340.9,294.8,340.9,293.7z"/>
		<path fill="#C22481" d="M180.7,182.8c5.6-2.8,11.1-5.9,16.9-8.3c1.9-0.8,4.7-0.6,6.6,0.3c9.9,4.3,19.7,8.8,29.4,13.5
			c1.1,0.5,2.2,2.5,2.3,3.8c0.3,5.3,0.1,10.6,0.1,16.6c-12.3-5.4-24.2-10.7-36.1-15.9C193.5,189.5,187.1,186.2,180.7,182.8z"/>
		<path fill="#3C4198" d="M340,238.1c1.9-3.5,4.8-4.4,8.6-4.3c11.3,0.2,22.6,0.1,33.9,0.1c6.8,0,8.2,1.5,8.2,8.2c0,2.8,0,5.6,0,9
			c-4.7,0.9-9.4,1.9-14.5,2.9c-0.1-2.8-0.2-5.2-0.4-8.2c-8.9,0-17.7,0.3-26.4-0.2c-2.9-0.2-5.7-2.2-8.6-3.4
			C340.6,240.9,340.3,239.5,340,238.1z"/>
		<path fill="#C22481" d="M212.7,154c-0.6,2.4-0.5,5.9-2.1,7.4c-2.9,2.7-7,5.8-10.6,5.7c-3.6,0-7.7-3.1-10.6-5.8
			c-1.5-1.5-1.3-5.2-1.2-7.9c0-2.5,0.1-5.8,1.6-7.2c2.8-2.7,6.6-5.9,10-5.8c3.9,0.1,8,3.1,11.3,5.7
			C212.4,147.5,212.1,151.1,212.7,154z"/>
		<path fill="#E12084" d="M180.7,182.8c6.4,3.3,12.8,6.6,19.2,9.9c-11.3,5.4-22.6,10.8-34,16.2c0-6.7,0-13.3-0.1-20
			C170.9,186.9,175.8,184.9,180.7,182.8z"/>
		<path fill="#3D4298" d="M340,238.1c0.3,1.4,0.6,2.8,0.9,4.2c-0.2,4.9-0.7,9.8-0.6,14.7c0,3.3-1.1,4.8-4.4,5.3
			c-3.6,0.5-7.1,1.4-11.3,2.3c0-8.6-0.5-16.7,0.2-24.8c0.4-5.2,7.8-7.5,12.3-4.4C338.1,236.2,339,237.2,340,238.1z"/>
		<path fill="#3D4298" d="M340.9,293.7c0,1.1,0,2.2,0.1,3.3c-1.2,0.7-2.5,1.3-3.6,2c-5.4,3.8-12.4,0.9-12.9-5.6
			c-0.3-4.1-0.1-8.3,0.2-12.4c0.1-0.9,0.9-2.4,1.7-2.6c4.4-1.1,8.9-1.8,13.7-2.8C340.3,282.1,340.6,287.9,340.9,293.7z"/>
		<path fill="#3F4497" d="M293.8,285.5c3.1-0.6,5.6-1.2,8.2-1.7c8.1-1.7,8.1-1.7,11.8,5.5c2.5,4.8,2,7-2.2,9.6
			c-4.5,2.7-8.8,2.1-11.3-1.9C298,293.4,296.1,289.6,293.8,285.5z"/>
		<path fill="#42479B" d="M242.2,294.6c6.2-0.7,11.7-1.3,17.4-2c-1.9,3.7-3.1,8-8,8C247.8,300.6,244.4,298.9,242.2,294.6z"/>
		<path fill="#F5F5F5" d="M289.2,335.3c-5.3-0.7-7.3-2.8-6.1-6.7c0.4-1.3,2-2.2,3.1-3.3c1.3,1.3,3.2,2.4,3.6,3.9
			C290.3,331,289.5,333.2,289.2,335.3z"/>
		<path fill="#F4F4F4" d="M163.8,323.4c2.4,2.9,4.5,4.4,4.9,6.3c0.2,1.1-2.3,2.8-3.6,4.2c-1.3-1.2-3.6-2.3-3.8-3.7
			C161,328.5,162.5,326.6,163.8,323.4z"/>
		<path fill="#E7E7E7" d="M192.9,323.9c1.9,2.8,4,4.5,3.9,6.1c-0.1,1.6-2.3,3.1-3.5,4.6c-1.4-1.6-3.6-3-3.9-4.8
			C189.1,328.4,191.1,326.6,192.9,323.9z"/>
		<path fill="#F5F5F5" d="M265.9,330c-2.4,2.1-3.6,4.1-5,4.2c-2.6,0.2-4.7-1.5-3.8-4.4c0.4-1.6,2-2.8,3-4.2
			C261.7,326.8,263.2,328,265.9,330z"/>
		<path fill="#ECECEC" d="M280.9,329.9c-2.2,2.1-3.5,3.4-4.8,4.6c-1.3-1.4-3.6-2.7-3.8-4.3c-0.2-1.4,1.9-3.1,3-4.7
			C276.9,326.7,278.5,328,280.9,329.9z"/>
		<path fill="#333333" d="M218.3,330.6c0.1,1.1,0.2,2.1,0.2,3.2c-0.3,0.1-0.7,0.2-1,0.3c-0.5-1.2-1.8-2.7-1.4-3.5
			c0.9-2,2.2-4.7,3.9-5.3c3.2-1.1,4.2,1.4,4.1,4.7C222.3,330.2,220.4,330.4,218.3,330.6z"/>
		<path fill="#373737" d="M235.3,335.7c0-5.7,0-10.1,0-14.6c1.4,3,2.6,5.8,7.5,5C234.3,324.9,238.1,332,235.3,335.7z"/>
		<path fill="#0D0D0D" d="M105.1,323.5c-1.5-0.3-2.7-0.5-3.9-0.8c0-0.2,0-0.4,0.1-0.7c2.8,0,5.6,0,9.2,0c-7.3,2.4-1.4,8.9-5.3,13
			C105.1,330.8,105.1,327.3,105.1,323.5z"/>
		<path fill="#FAFAFA" d="M165.9,189c0,6.7,0,13.3,0.1,20c-0.3-4.6-0.5-9.3-1.1-13.9c-0.3-2.1-1.4-4.1-2.2-6.3
			C163,188.8,164.5,188.9,165.9,189z"/>
		<path fill="#393939" d="M267.3,334.3c0-4.4,0-8.7,0-13.1c0.3,0,0.6,0,0.9,0c0,4.4,0,8.7,0,13.1
			C267.9,334.3,267.6,334.3,267.3,334.3z"/>
		<path fill="#383838" d="M139.1,322c-0.5,4.2-1,8.3-1.5,12.5c-0.5,0-1-0.1-1.5-0.1c0.3-4.2,0.6-8.4,0.9-12.6
			C137.6,321.9,138.3,321.9,139.1,322z"/>
		<path fill="#202020" d="M125.9,325.4c-0.1,0.1-0.1,0.2-0.2,0.3c-0.2-0.1-0.3-0.2-0.5-0.4c0.1-0.1,0.2-0.3,0.4-0.3
			C125.6,325.1,125.8,325.3,125.9,325.4z"/>
		<path fill="#4A4A4A" d="M142.4,331.2c0.1,0,0.2,0,0.3,0c-0.1,0.2-0.1,0.4-0.2,0.6c-0.1-0.1-0.3-0.2-0.3-0.3
			C142.2,331.5,142.3,331.3,142.4,331.2z"/>
	</g>
</g>
<path fill="#3C4198" d="M344.2,234.5c0,0-1.1-0.1-3.5,1.7c-1,2.4-0.3,6.3,1.1,7.6s6.9,1.9,6.9,1.9v-9.1l-4.2-2"/>
<path fill="#FFFFFF" d="M342,235.4c0,0-1.2,1-1.9,2.1c0,1.8,0.9,5,2,6.1s-1.7,1.6-1.7,1.6s0.9-4.3-1.3-7.7c-2.3-3.4,1.2-4.6,1.2-4.6
	L342,235.4z"/>
<path fill="#FFFFFF" d="M342.2,235.2c0,0-1.7,1.6-1.7,2.2s0,3.4,0.6,4.3c0.6,0.9,0.5,1.6,1.5,2.4c1,0.8-1.1,2.3-1.1,2.3l-0.3-3.3
	l-1.1-4.1l-0.8-3.6L342.2,235.2z"/>
<path fill="#3C4198" d="M340.6,240.3c0,0,0.5,3.5,2.2,4c1.7,0.5,1.2-4.3,1.2-4.3l0.1-5.7c0,0-4.1,1.1-3.5,5.7"/>
<path fill="#FFFFFF" d="M344,234.3c0,0-4.1,1.7-3.6,5c0.5,3.3-2.4-6.4-2.4-6.4l4.2-0.9L344,234.3z"/>
<path fill="#FFFFFF" d="M342.9,234.9c0,0,0,0,0.1-0.1c0.6-0.2,3.1-1.2,7.2-1c4.8,0.2-3.2-2.1-3.2-2.1l-6.3,1.1L342.9,234.9z"/>
<path fill="#3C4198" d="M341.8,243.5c0,0,1.2,1.8,7,2.1c5.8,0.3,2.3-5.6,2.3-5.6L341.8,243.5z"/>
<polygon fill="#FFFFFF" points="356.5,233.9 346.3,234 342.6,232.4 357.6,231.8 "/>
<path fill="#FFFFFF" d="M347.7,234c0,0-2.7,0.3-3.4,0.4c-0.7,0.2-2.4-2.1-2.4-2.1l6.2-1.2L347.7,234z"/>
<path fill="#3C4198" d="M341.8,243.5c0,0,1.6,2.7,7.3,2.1c5.7-0.6,1.5-4.5,1.5-4.5l-8.5,2.5"/>
<polygon fill="#3C4198" points="346.9,245.7 350,245.7 352.8,245.5 346.6,245.1 "/>
<polygon fill="#3C4198" points="348.9,245.7 352.8,245.8 351,244.6 348.9,245.6 "/>
<path fill="#FFFFFF" d="M346.6,234.1c0,0-6.4,0.2-6.1,5.9c0.2,5.7-0.9-8-0.9-8l3.2-1.3L346.6,234.1z"/>
<path fill="#3C4198" d="M853.2,445.2c0,0-0.5,6.1,6.1,6.2c6.6,0-5.3,1.7-5.3,1.7L853.2,445.2z"/>
<path fill="#3C4198" d="M346.3,238.6c0,0,8.8,6.6,1.4,7.1c-7.4,0.5-7.2-5.7-7.2-5.7L346.3,238.6z"/>
<polygon fill="#3C4198" points="347.1,245.7 349.4,245.7 347.7,244.4 "/>
<path fill="#FFFFFF" d="M339.9,256.1v-14.9c0,0-0.5-2.3-0.7-3s-3.9-3.7-6-4.2s5-4.9,5-4.9l1.6,6.9l0.8,7.2L339.9,256.1z"/>
<path fill="#FFFFFF" d="M338,236.9c0,0,1.9,1.4,1.9,7.5s2.3,2.6,2.3,2.6l-1.9-4.8l-1.1-7.7L338,236.9z"/>
<path fill="#3C4198" d="M332.5,234c0,0,3.8,0.2,5.9,3.4c2.1,3.2-7.7,5.8-7.7,5.8L332.5,234z"/>
<path fill="#FFFFFF" d="M338.9,275.8l0.6,14.9c0,0,0,2.6,0,3.3s-1,4.5-2.9,5.5s3.9,2.4,3.9,2.4v-13.3l0.7-14.6L338.9,275.8z"/>
<path fill="#3C4198" d="M346.5,300.8c0,0-5.5-0.4-6-4s1-6.9,3-7.3s2.3,7,2.3,7L346.5,300.8z"/>
<path fill="#3C4198" d="M347.9,300.8c0,0-5.5,0.3-6.6-2.4c-1.1-2.7,0.9-7.4,0.9-7.4L347.9,300.8z"/>
<path fill="#3C4198" d="M345.6,289.1c0,0-5.3-0.2-5.4,5.3s2.9,6.2,5.4,6.3s4.8-8.2,4.8-8.2L345.6,289.1z"/>
<path fill="#FFFFFF" d="M325.3,297.1c0,0-1.1-4-0.9-5.4s0-11.3,0-11.3l-5.3,3L325.3,297.1z"/>
<path fill="#FFFFFF" d="M324.5,288.8c0,0,0,6.7,0.8,8.3S318,299,318,299l-1.4-14.4L324.5,288.8z"/>
<rect x="82" y="316.7" fill="#FFFFFF" width="248.7" height="28.7"/>
<text transform="matrix(1 0 0 1 117.6665 337.3337)" fill="#FFFFFF" font-family="'MyriadPro-Regular'" font-size="18">The Magic of Technology</text>
<path fill="#FFFFFF" d="M233.1,247c0,0,4-1.2,6.3-0.4s-3.8,2.3-3.8,2.3L233.1,247z"/>
<path fill="#FFFFFF" d="M162.6,246.6c0,0,7.5-1.3,8.1-0.6s-5.2,5.4-5.2,5.4L162.6,246.6z"/>
<polygon fill="#C22481" points="199.6,140.2 188.6,147.5 188.6,160.3 200.7,167.1 211.9,159.8 211.6,146.1 "/>
<polygon fill="#FFFFFF" points="199.1,140.6 188.8,147.4 187.7,143.2 196.1,138.9 "/>
<polygon fill="#FFFFFF" points="188.6,148 188.6,160.3 183.1,160.9 183.7,145.8 "/>
<polygon fill="#FFFFFF" points="200.7,167.1 188.6,160.3 187.3,162.3 196.8,169.4 201.3,169 "/>
<path fill="#FFFFFF" d="M211.9,159.8l-11.3,7.3l-2,0.5l2.8,1.4c0,0,8-2.8,8.1-2.9s4.4-4.4,4.4-4.4L211.9,159.8z"/>
<polygon fill="#FFFFFF" points="211.6,146.1 211.9,159.8 217.8,154.8 "/>
<polygon fill="#FFFFFF" points="199.6,140.2 211.6,146.1 211.3,140.7 198.9,138.8 "/>
<polygon fill="#FFFFFF" points="207.4,133.3 224,148.3 211.6,147.1 199.6,140.2 "/>
<polygon fill="#FFFFFF" points="339.9,247.2 339.9,260.1 346.9,256.7 344,247.2 "/>
<path fill="#FFFFFF" d="M339.9,258.3c0,0-0.3,2.1-0.7,2.6c-0.4,0.5,7.1,0.6,7.1,0.6L339.9,258.3z"/>
<path fill="#FFFFFF" d="M342.2,290.1c0,0-1.5,1.1-1.8,2.5s-0.5-3.5-0.5-3.5l2.3-6.7V290.1z"/>
<polygon fill="#FFFFFF" points="278.5,257.9 268,275.6 282.9,275.6 "/>
<path fill="#FFFFFF" d="M267.7,275.3c0,0,0.9-0.6,1.2-1.2c0.4-0.6,1.2,3.8,1.2,3.8L267.7,275.3z"/>
</svg>
