<svg xml:space="preserve" viewBox="0 114.39999999999999 404 208" y="0px" x="0px" xmlns:xlink="http://www.w3.org/1999/xlink" xmlns="http://www.w3.org/2000/svg" id="Layer_1" version="1.1" style="max-height: 500px" width="404" height="208">
<path d="M556.5,900.5c0-132.2,0-264.3,0-396.5c133,0,266.1,0,399.1,0c0,132.1,0,264.3,0,396.5&#10;&#9;C822.4,900.5,689.5,900.5,556.5,900.5z M937.1,791.8L937.1,791.8c-9.5,0-19.1,0-28.6,0c-0.4,0-0.8,0.1-1.1,0.2&#10;&#9;c-1.2,0.3-2.4,0.5-3.6,0.8c0-2.3,0-4.6,0-7c-0.1,0-0.1,0-0.2,0c-0.4,1-0.8,1.9-1.1,2.9c-0.1,0-0.2,0-0.2-0.1&#10;&#9;c0.2-3.8,0.3-7.7,0.5-11.8c-0.9,0.8-1.7,1.4-2.4,2c-3.6,0.7-7.3,1.5-10.9,2.1c-1.7,0.3-2.9,0.9-3.5,2.6c-1.8,0.9-3.7,1.8-5.5,2.7&#10;&#9;c0.4,1.1,0.8,2,1.3,3.1c-1.3-0.7-2.4-1.3-3.7-1.9c0.5,5,1,9.8,1.4,14.5c1.1-0.1,1.9,0,2.8-0.1c1.7-0.2,3.4-0.3,4.8-1.5&#10;&#9;c3.2,3.6,6.9,4.4,10.7,2.4c0.2,0.3,0.3,0.7,0.6,0.8c1.2,0.5,2.4,0.9,3.8,1.4c0-1.4,0-2.5,0-3.7c1.1,1.7,2.6,2.5,4.6,2.5&#10;&#9;c1.5,0,3,0,4.5,0.1c0.3,0.1,0.6,0.2,0.9,0.2c2.6,0,5.2,0,7.8,0c4.1,0,8.3,0,12.4,0c1.5,0,3,0,4.4,0c1.1,0,2.2-0.1,3.3-0.2&#10;&#9;c1.6,0,3.1-0.1,4.7,0c1.8,0.1,3.3-0.5,4.8-1.4c2-1.4,3-3.1,2.9-5.6c-0.1-2.7,0.1-5.4,0.2-8.1c0.1-0.3,0.2-0.6,0.2-0.9c0-3,0-6,0-9&#10;&#9;c0-0.3-0.1-0.6-0.2-0.9c0-3.2,0-6.4,0-9.6c-1.2,0.3-2.2,0.5-3.2,0.7c-4,0.8-8,1.6-12,2.5c-0.1,0.4-0.2,0.7-0.2,1.1&#10;&#9;C937.1,778.9,937.1,785.3,937.1,791.8z M727.3,691.7c-1.1,0-2.1,0-3.3,0c0.3,0.7,0.5,1.2,0.7,1.7c0.6,1.9,1.3,3.8,1.6,5.7&#10;&#9;c0.4,2.7,0.5,5.4,0.8,8.2c0.1,1.4,0.1,2.8,0.3,4.2c0,0.2,0.3,0.3,0.5,0.4c1.8-0.9,3.7-1.8,5.5-2.7c4.7-2.2,9.4-4.4,14-6.7&#10;&#9;c3.1-1.5,6.2-3,9.3-4.5c1.6-0.7,3.2-1.4,4.8-2.1c0.1,0,0.2,0,0.2,0c5.7,2.5,11.3,5,17,7.5c5.4,2.4,10.7,4.8,16.1,7.1&#10;&#9;c0.8,0.4,1.7,0.7,2.9,1.1c0-2.4,0-4.5,0-6.6c0-3.4,0-6.7-0.2-10.1c-0.1-1.7-0.8-3.2-2.5-4c-1.9-0.9-3.8-1.9-5.7-2.7&#10;&#9;c-7.5-3.4-15-6.8-22.5-10.2c-3.1-1.4-6.1-1.6-9.2-0.1c-1.5,0.7-3.1,1.4-4.6,2.2c-3.6,1.8-7.1,3.7-10.7,5.6c-0.2,0-0.3,0-0.5,0&#10;&#9;c-4.7,2-9.4,3.9-14.1,5.9C727.6,691.7,727.5,691.7,727.3,691.7z M750.2,650.1c-0.1,0.2-0.2,0.5-0.3,0.7c-1.5-0.7-3.1-1.4-4.6-2.1&#10;&#9;c-0.1,1.3-0.3,2.4-0.3,3.6c-0.1,3.4-0.2,6.8-0.2,10.1c0,1.4,0.1,1.5,1.6,1.3c1.2-0.2,2.4-0.3,3.7-0.4c-0.4,0.6-0.8,1.3-1.2,2&#10;&#9;c3.1,2.2,6.1,4.5,9.1,6.6c0.3,0.2,0.6,0.3,1,0.3c2.3,0.1,4.5-0.5,6.8-1.2c3.6-1,6.6-2.8,9.2-5.5c0.8-0.8,0.7-1.3-0.1-1.9&#10;&#9;c-0.4-0.3-0.8-0.7-1.2-1.1c0,0,0,0,0,0c2-1.6,4-3.2,5.9-4.9c-1.9-2.6-3.6-5-5.4-7.6c3.9,0.4,7.5,0.7,11.2,1.1c0-0.1,0.1-0.2,0.1-0.3&#10;&#9;c-5.5-4.9-10.9-9.8-16.4-14.8c-1,0.9-1.8,1.8-2.8,2.4c-1.8,1.2-2.7,3.8-5.6,3.2c0.2,0.6,0.3,1,0.5,1.4c-0.2,0.1-0.5,0.2-0.7,0.3&#10;&#9;c-1.2-1.2-2.6-1.7-3.7-1.2c-2.2,1.1-4.5,2.3-6.7,3.3c-0.6,0.3-0.8,0.7-0.6,1.3C749.6,648,749.9,649.1,750.2,650.1z M894.4,737&#10;&#9;c-1.1,0.1-2.2,0.1-3.2,0.3c-2.7,0.7-4.6,2.2-5,5.1c-0.2,1.6-0.2,3.3-0.3,4.9c-0.1,0.1-0.2,0.3-0.2,0.4c0,3.9,0,7.7,0,11.6&#10;&#9;c0,0.1,0.1,0.3,0.2,0.4c0,2.5,0,5.1,0,7.7c0.5-0.1,0.8-0.1,1.1-0.1c3-0.6,6-1.3,9.1-1.9c1.7-0.3,3.5-0.4,4.8-1.8&#10;&#9;c0.1,0.2,0.3,0.5,0.4,0.5c2,0.2,4,0.3,6.1,0.4c0-0.1,0-0.2,0-0.3c-1.3-0.7-2.6-1.3-4-2c1.5-0.8,2.9-1.4,4.3-2.1&#10;&#9;c0.3-0.2,0.6-0.8,0.5-1.1c-0.8-2.8-1.6-5.5-2.5-8.2c-0.1-0.3-0.4-0.6-0.7-0.7c-1.7-0.4-1.7-0.4-0.8-1.9c0.1-0.1,0-0.2,0.1-0.3&#10;&#9;c1,0.3,1.9,0.9,2.9,0.9c3.2,0.2,6.5,0.1,9.8,0.2c4.3,0,8.6,0,12.9,0c2.5,0,4.9,0,7.4,0c0.1,2.7,0.3,5.4,0.4,8.1&#10;&#9;c4.9-1,9.7-2,14.6-2.9c0.1-0.4,0.2-0.8,0.2-1.3c0-2.6,0-5.3,0-7.9c0-0.5-0.1-1.1-0.2-1.6c-0.1-0.7-0.2-1.5-0.3-2.2&#10;&#9;c-0.5-2-1.5-3.5-3.7-3.8c-1.3-0.2-2.5-0.4-3.8-0.4c-8.8-0.1-17.6-0.1-26.3-0.1c0.3-0.7,0.5-1.4,0.9-2.2c-2.7,0.2-5.3,0.3-7.9,0.5&#10;&#9;c-0.4,0-1.1,0.1-1.3-0.1c-0.7-1.4-1.7-0.5-2.7-0.4c-0.6,0-1.4,0.1-1.9-0.2c-0.9-0.7-1.8-0.7-2.7-0.1c-0.6,0.4-1.3,0.7-2,1.1&#10;&#9;c-0.3-1-0.6-2.1-1-3.5c-1.6,1.3-3.1,2.4-4.5,3.6C894.8,735.8,894.6,736.5,894.4,737z M661.2,746.2c-0.1-1.2-0.2-2.4-0.4-3.5&#10;&#9;c-0.9-4.5-4.1-5.9-8.2-5.8c-2.5,0.1-5,0.5-6.1,3.3c-0.5,1.2-0.6,2.5-1,3.8c-0.1,0.4-0.2,0.8-0.2,1.1c0,7.7,0,15.5,0,23.2&#10;&#9;c0,0.3,0.1,0.7,0.1,1c0,0.2,0.1,0.3,0.1,0.5c0,7.1,0,14.2,0.1,21.2c0,2,0,4,0.3,6c0.2,1.7,1,3.2,2.4,4.4c2.2,1.9,4.8,2.3,7.5,1.6&#10;&#9;c2.4-0.6,4.2-2,4.9-4.5c0.3-1,0.5-2,0.7-3c0.1-0.5,0.2-1.1,0.2-1.6c0-2.2-0.1-4.3-0.2-6.5c0-1.5-0.1-3-0.1-4.4c0-8.1,0-16.2,0-24.3&#10;&#9;c0-3.9,0-7.7,0-11.6C661.3,746.8,661.2,746.5,661.2,746.2z M704.8,615c-0.4-0.1-0.8-0.2-1.2-0.2c-5.9,0-11.7,0-17.6,0&#10;&#9;c-0.3,0-0.7,0.3-1,0.4c9.6,20.1,19.2,40.2,28.9,60.4c0.3-0.3,0.4-0.5,0.5-0.7c3.3-6.2,6.5-12.3,9.9-18.5c1.1-2,1-4,0.1-5.9&#10;&#9;c-5.2-11-10.4-22-15.6-33C708,616,706.9,614.8,704.8,615z M840.4,761.7c0.3,0.5,0.7,0.9,1,1.4c1.8,2.9,3.5,5.8,5.3,8.6&#10;&#9;c1.3,2,3.4,3.1,5.7,2.9c2.8-0.2,5.5-0.9,8.3-1.5c1.2-0.2,2.3-0.7,3.5-1.2c-1.2-2.3-2.3-4.3-3.4-6.2c-3.7-6.9-7.4-13.7-11.1-20.6&#10;&#9;c-0.9-1.7-1.8-3.6-3-5.1c-2.4-3-5.7-3.5-9.2-2.8c-1.9,0.4-3.5,1.2-4.4,3c-2.5,4.7-5.1,9.3-7.6,14c-2.4,4.5-4.7,9-7.1,13.5&#10;&#9;c-2.3,4.4-4.7,8.9-7,13.3c-0.3,0.6-0.6,1.2-1,2c3.6-0.6,7.1-1.1,10.4-1.8c3-0.6,6-1.4,8.6-3.2c0.7,0.9,1.4,1.7,2.1,2.6&#10;&#9;c0.1,0,0.1-0.1,0.2-0.1c-0.1-0.6-0.2-1.2-0.3-2c4.4,0,8.7,0,13.2,0c-0.8-3.1-1.5-6-2.2-9C841.6,767,841,764.3,840.4,761.7z&#10;&#9; M716.3,737.2c-0.4-0.1-0.8-0.2-1.3-0.2c-12.3,0-24.5,0-36.8,0c-0.4,0-0.8,0.1-1.3,0.2c-0.6,0.1-1.3,0.2-1.9,0.3c-3,0.6-5,2.9-5.1,6&#10;&#9;c-0.1,5.3,0,10.6,0,15.9c0,3.6,0,7.3,0,10.9c0,3.6,0,7.2,0,10.9c0,0.3,0.1,0.6,0.2,0.9c0,3.1,0.1,6.2,0.1,9.3c0,0.8,0,1.7,0,2.5&#10;&#9;c0,1.5,0.1,3,0.2,4.5c0.2,1.8,0.8,3.4,2.4,4.3c1.2,0.6,2.5,1.1,3.8,1.2c4.6,0.1,9.2,0,13.8,0c6,0,12,0,18,0c3.3,0,6.5,0,9.8,0&#10;&#9;c0.3,0,0.7-0.1,1-0.2c3-0.3,5.3-2.3,5.1-6c-0.1-3.5-2.5-5-5.1-5.1c-4.4-0.2-8.9-0.2-13.3-0.2c-6.2,0-12.3,0-18.5,0&#10;&#9;c-0.4,0-0.9,0-1.4,0c0-0.5,0-0.8,0-1.2c0-13.8,0-27.5,0-41.3c0-0.4,0.1-0.7,0.1-1.1c8.6,0,17.2,0,25.8,0c0.4,0,0.9-0.1,1.3-0.2&#10;&#9;c0.7,0,1.4,0,2-0.1c1.7-0.1,3.3-0.1,4.8-0.9c2.1-1.2,2.8-3.1,2.7-5.3c-0.1-2.2-1.1-3.9-3.4-4.6C718.3,737.7,717.3,737.5,716.3,737.2&#10;&#9;z M778.2,775c-0.1,0.3-0.2,0.7-0.2,1c0,6.8,0,13.7,0,20.5c0,0.3,0.1,0.7,0.2,1c0.5,3,2,5.5,5.9,6.2c4.6,0.9,8-1.2,9.2-5.5&#10;&#9;c0.7-2.7,0.9-5.6,0.9-8.3c0.1-10.9,0-21.8,0.1-32.6c0-2.2,0.2-4.4,0.3-6.6c0-0.3,0.5-0.8,0.8-0.9c1.6-0.3,3.3-0.4,5.2-0.7&#10;&#9;c-2.9-3.2-5.6-6.5-8.7-9.4c-3.4-3.1-6.6-3.4-10-1.1c-2.4,1.7-4.5,4-6.7,6c-1.1,1.1-2.1,2.3-3.2,3.5c-1.5,1.7-3.1,3.3-4.6,5&#10;&#9;c-0.9,1-1.9,2-2.8,3.1c-1.4-1.2-2.6-2.4-3.8-3.5c-4.9-4.5-9.7-9.2-14.6-13.6c-3.7-3.3-8.3-3.4-11.9-0.1c-2.4,2.2-4.5,4.6-6.7,7&#10;&#9;c-1,1-1.8,2.2-2.9,3.4c0.5,0,0.8,0,1,0c-0.5,0.1-1,0.2-1.6,0.3c1,1.6,1.9,3.2,2.9,4.8c0.7-0.5,1.2-0.8,1.5-1.2&#10;&#9;c1.3-1.3,2.5-2.7,3.7-4c0.1,0,0.2,0.1,0.2,0.1c0,15.1,0,30.2,0,45.3c0,0.5,0.1,0.9,0.2,1.4c0.1,2.1,0.8,4,2.3,5.5&#10;&#9;c3.1,2.9,8.3,2.5,11.1-0.7c1.3-1.5,1.8-3.4,2.3-5.3c0.1-0.4,0.2-0.8,0.2-1.3c0-10.3,0-20.5,0-30.8c0.4,0.2,0.8,0.3,1.2,0.6&#10;&#9;c2.7,1.5,5.4,3.1,8.2,4.6c3.4,1.7,6.9,1.9,10.3,0c2.6-1.4,5-3.2,7.5-4.8c0.8-0.5,1.6-1,2.4-1.5C778.2,766.7,778.2,770.8,778.2,775z&#10;&#9; M569.9,758.8c0,4.3,0,8.6,0,12.9c0,0.3,0.1,0.5,0.2,0.8c0,6.4,0.1,12.8,0.1,19.2c0,0.1-0.1,0.1-0.2,0.3c-1.8,0-3.8,0-5.9,0&#10;&#9;c1.1,1.2,2,2.3,2.9,3.4c2.1,2.3,4,4.8,6.3,7c2,1.9,4.5,2.6,7.3,1.9c2.8-0.7,4.9-2.5,6.7-4.5c4.2-4.5,8.3-9,12.4-13.6&#10;&#9;c0.5-0.6,0.8-0.5,1.2,0c1.6,1.6,3.3,3.1,4.9,4.7c2.9,2.7,5.9,5.4,8.7,8.2c1.8,1.8,3.7,3.5,6.1,4.4c2.6,1,5.2,1.1,7.5-0.5&#10;&#9;c1.9-1.3,3.6-3,5.3-4.8c2-2.1,3.8-4.4,5.9-6.8c-2.5,0.2-4.8,0.3-7.1,0.5c0-0.5,0-0.9,0-1.3c-0.1-15.1-0.1-30.2-0.3-45.3&#10;&#9;c0-2.8-0.8-5.4-3.4-7c-1.6-1-3.5-0.9-5.3-0.9c-5.3,0.1-7,3.9-7.2,7.8c-0.1,1.3,0,2.5,0,3.8c0,9.3,0,18.6,0,27.9c0,0.5-0.2,1-0.3,1.5&#10;&#9;c-1.3-0.7-2.6-1.4-3.9-2.2c-3.4-2-6.6-4-10.4-5.1c-2.9-0.9-5.6-0.4-7.8,1.6c-1.9,1.7-3.7,3.6-5.6,5.4c-0.7,0.7-1.4,1.4-2.4,2.3&#10;&#9;c0-0.8,0-1.2,0-1.6c0-11.1,0-22.1-0.1-33.2c0-2.2-0.3-4.4-2.1-6c-1.7-1.5-3.7-1.8-5.9-1.8c-5.2-0.1-7.4,3.3-7.6,7.8&#10;&#9;C569.8,750.1,570,754.4,569.9,758.8z M767.9,819.6c-41,0-82.1,0-123.1,0c-1.1,0-1.5,0.3-1.5,1.5c0,8.6,0,17.2,0,25.8&#10;&#9;c0,1.6,0,1.6,1.6,1.6c81.9,0,163.8,0,245.6,0c1.6,0,1.6,0,1.6-1.7c0-8.5,0-17,0-25.4c0-1.7,0-1.7-1.7-1.7&#10;&#9;C849.7,819.6,808.8,819.6,767.9,819.6z M808.4,676.5c10.2-20.6,20.4-41,30.5-61.5c-5.8,0-11.4-0.1-16.9,0c-2,0-4.3-0.1-5.6,2&#10;&#9;c-0.6,0.9-1.2,1.8-1.7,2.7c-3.2,6.4-6.4,12.8-9.6,19.3c-1.8,3.7-3.6,7.3-5.4,11c-1,2-1.5,4-0.4,6.1c0.5,1,0.8,2,1.3,3&#10;&#9;C803.2,664.8,805.7,670.5,808.4,676.5z M855.1,788.4c0.4,0.7,0.7,1.3,1.1,1.9c1.8,3.2,3.6,6.4,5.4,9.6c1.5,2.7,3.9,3.9,6.9,3.6&#10;&#9;c2.1-0.2,3.9-1.2,5.6-2.4c2.5-1.8,3.2-3.7,2.1-6.5c-0.9-2.2-2.1-4.3-3.2-6.4c-1-2-2.7-2.8-4.9-2.4&#10;&#9;C863.8,786.6,859.5,787.5,855.1,788.4z M821.3,795.5c-6.1,0.7-11.8,1.4-17.6,2c1.5,3.3,4.4,5.5,8,6c2.9,0.4,5.1-0.4,6.7-2.7&#10;&#9;C819.4,799.3,820.2,797.5,821.3,795.5z" fill="#FDFDFD"/>
<path d="M-770.2,538.7c133,0,266,0,399.1,0c0-132.2,0-264.3,0-396.5c0.1,0,0.2,0.1,0.2,0.1c0,0.3,0,0.6,0,1&#10;&#9;c0,131.9,0,263.8,0,395.6c-132.8,0-265.5,0-398.3,0C-769.5,538.9-769.9,538.8-770.2,538.7z" fill="#FEFEFE"/>
<path d="M434.3,483.2c40.9,0,81.8,0,122.6,0c1.7,0,1.7,0,1.7,1.7c0,8.5,0,17,0,25.4c0,1.7,0,1.7-1.6,1.7&#10;&#9;c-81.9,0-163.8,0-245.6,0c-1.6,0-1.6,0-1.6-1.6c0-8.6,0-17.2,0-25.8c0-1.2,0.3-1.5,1.5-1.5C352.3,483.2,393.3,483.2,434.3,483.2z" fill="#FEFEFE"/>
<path d="M60.1,256c0-1.3-0.1-2.6,0-3.8c0.2-4,1.8-7.8,7.2-7.8c1.8,0,3.6-0.1,5.3,0.9c2.6,1.6,3.3,4.2,3.4,7&#10;&#9;c0.1,15.1,0.2,30.2,0.3,45.3c0,0.4,0,0.8,0,1.3c2.3-0.1,4.5-0.3,7.1-0.5c-2.1,2.4-3.9,4.7-5.9,6.8c-1.6,1.7-3.3,3.4-5.3,4.8&#10;&#9;c-2.3,1.6-4.9,1.5-7.5,0.5c-2.4-1-4.3-2.6-6.1-4.4c-2.8-2.8-5.8-5.5-8.7-8.2c-1.6-1.5-3.3-3.1-4.9-4.7c-0.5-0.4-0.7-0.5-1.2,0&#10;&#9;c-4.1,4.6-8.2,9.1-12.4,13.6c-1.9,2-3.9,3.8-6.7,4.5c-2.8,0.7-5.3,0-7.3-1.9c-2.3-2.2-4.2-4.6-6.3-7c-0.9-1.1-1.8-2.1-2.9-3.4&#10;&#9;c2.1,0,4,0,5.9,0c0.1-0.2,0.2-0.3,0.2-0.3c0-6.4-0.1-12.8-0.1-19.2c0-2.2,0-4.3,0-6.5c0-2.4-0.1-4.9-0.2-7.3c0-4.4-0.1-8.7,0.1-13.1&#10;&#9;c0.2-4.5,2.5-7.8,7.6-7.8c2.2,0,4.2,0.3,5.9,1.8c1.8,1.6,2.1,3.8,2.1,6c0.1,11.1,0.1,22.1,0.1,33.2c0,0.4,0,0.8,0,1.6&#10;&#9;c1-0.9,1.7-1.6,2.4-2.3c1.9-1.8,3.7-3.7,5.6-5.4c2.3-2,4.9-2.4,7.8-1.6c3.8,1.1,7.1,3.2,10.4,5.1c1.3,0.8,2.6,1.5,3.9,2.2&#10;&#9;c0.9,0.1,0.4-0.6,0.4-0.9c0-9.1,0-18.2,0-27.3C60.2,256.8,60.1,256.4,60.1,256z" fill="#3C4196"/>
<path d="M169.5,256.2c-0.2,0-0.5,0-1,0c1-1.3,1.9-2.4,2.9-3.4c2.2-2.4,4.4-4.8,6.7-7c3.6-3.3,8.2-3.2,11.9,0.1&#10;&#9;c5,4.4,9.8,9.1,14.6,13.6c1.2,1.1,2.5,2.3,3.8,3.5c0.9-1,1.9-2.1,2.8-3.1c1.5-1.7,3.1-3.3,4.6-5c1.1-1.2,2-2.4,3.2-3.5&#10;&#9;c2.2-2.1,4.2-4.4,6.7-6c3.3-2.3,6.6-1.9,10,1.1c3.1,2.9,5.8,6.2,8.7,9.4c-2,0.2-3.6,0.4-5.2,0.7c-0.3,0.1-0.7,0.6-0.8,0.9&#10;&#9;c-0.2,2.2-0.3,4.4-0.3,6.6c0,10.9,0,21.8-0.1,32.6c0,2.8-0.3,5.7-0.9,8.3c-1.1,4.3-4.6,6.4-9.2,5.5c-3.9-0.8-5.5-3.2-5.9-6.2&#10;&#9;c0-7.5,0-15,0-22.5c0-4.1,0-8.3,0-12.7c-0.9,0.5-1.6,1-2.4,1.5c-2.5,1.6-4.9,3.3-7.5,4.8c-3.4,1.9-6.9,1.8-10.3,0&#10;&#9;c-2.8-1.4-5.5-3-8.2-4.6c-0.4-0.2-0.8-0.4-1.2-0.6c-0.1,0.4-0.1,0.8-0.1,1.3c0,10.3,0,20.5,0,30.8c-0.4,1.9-0.9,3.8-2.3,5.3&#10;&#9;c-2.8,3.2-8,3.6-11.1,0.7c-1.5-1.4-2.2-3.4-2.3-5.5c0-1.1,0-2.2,0-3.2c0-14.1,0-28.1,0-42.2c0-0.4-0.1-0.8-0.1-1.3&#10;&#9;c-0.1,0-0.2-0.1-0.2-0.1c-0.3-0.2-0.7-0.5-1-0.5C173.1,255.8,171.3,256,169.5,256.2z" fill="#3C4196"/>
<path d="M130,255.9c0,0.4-0.1,0.7-0.1,1.1c0,13.8,0,27.5,0,41.3c0,0.3,0,0.7,0,1.2c0.6,0,1,0,1.4,0&#10;&#9;c6.2,0,12.3,0,18.5,0c4.4,0,8.9,0,13.3,0.2c2.7,0.1,5,1.6,5.1,5.1c0.1,3.7-2.1,5.7-5.1,6c-2.7,0-5.5,0-8.2,0c-0.9,0-1.7,0.1-2.6,0.1&#10;&#9;c-6,0-12,0-18,0c-4.6,0-9.2,0.1-13.8,0c-1.3,0-2.6-0.6-3.8-1.2c-1.7-0.9-2.2-2.5-2.4-4.3c-0.1-2.3-0.1-4.7-0.2-7&#10;&#9;c0-3.1-0.1-6.2-0.1-9.3c0-1.6,0-3.1,0-4.7c0-2.4-0.1-4.8-0.2-7.1c0-3.6,0-7.3,0-10.9c0-5.3,0-10.6,0-15.9c0-3,2.1-5.4,5.1-6&#10;&#9;c0.6-0.1,1.3-0.2,1.9-0.3c13.1,0,26.2,0,39.3,0c1,0.2,2,0.5,3,0.7c2.3,0.7,3.3,2.4,3.4,4.6c0.1,2.2-0.5,4.1-2.7,5.3&#10;&#9;c-1.5,0.9-3.2,0.9-4.8,0.9c-0.7,0-1.4,0-2,0.1c-8.8,0-17.6,0-26.4,0C130.4,255.7,130.2,255.8,130,255.9z" fill="#3C4196"/>
<path d="M273.2,285c-2.6,1.9-5.6,2.6-8.6,3.2c-3.4,0.7-6.8,1.2-10.4,1.8c0.4-0.8,0.7-1.4,1-2c2.3-4.4,4.7-8.9,7-13.3&#10;&#9;c2.4-4.5,4.7-9,7.1-13.5c2.5-4.7,5.1-9.4,7.6-14c1-1.8,2.6-2.7,4.4-3c3.6-0.7,6.9-0.2,9.2,2.8c1.2,1.5,2.1,3.4,3,5.1&#10;&#9;c3.7,6.9,7.4,13.7,11.1,20.6c1.1,2,2.1,4,3.4,6.2c-1.2,0.4-2.3,0.9-3.5,1.2c-2.8,0.6-5.5,1.3-8.3,1.5c-2.3,0.2-4.4-0.9-5.7-2.9&#10;&#9;c-1.8-2.8-3.5-5.7-5.3-8.6c-0.3-0.5-0.7-0.9-1-1.4c-0.1-0.3-0.2-0.6-0.4-1c-0.3,0.5-0.5,0.8-0.8,1.2c-2.8,4.8-5.6,9.5-8.4,14.3&#10;&#9;C274.2,283.8,273.7,284.3,273.2,285z" fill="#3C4197"/>
<path d="M148.6,121.9c2.1-0.2,3.2,1,4.1,2.7c5.2,11,10.4,22,15.6,33c0.9,1.9,1,3.9-0.1,5.9&#10;&#9;c-3.3,6.1-6.6,12.3-9.9,18.5c-0.1,0.2-0.3,0.4-0.5,0.7c-9.7-20.3-19.3-40.3-28.9-60.4c0.4-0.1,0.9-0.3,1.3-0.3&#10;&#9;C136.3,121.9,142.5,121.9,148.6,121.9z" fill="#C12480"/>
<path d="M252.3,183.4c-2.7-6-5.2-11.7-7.8-17.4c-0.4-1-0.8-2-1.3-3c-1.2-2.1-0.6-4.1,0.4-6.1c1.8-3.7,3.6-7.3,5.4-11&#10;&#9;c3.2-6.4,6.4-12.9,9.6-19.3c0.5-0.9,1.1-1.8,1.7-2.7c1.3-2.2,3.6-2,5.6-2c5.6-0.1,11.1,0,16.9,0&#10;&#9;C272.6,142.3,262.5,162.7,252.3,183.4z" fill="#E02083"/>
<path d="M105.2,265.6c0,8.1,0,16.2,0,24.3c0,1.5,0,3,0.1,4.4c0,2.7,0,5.4,0,8.1c-0.2,1-0.4,2-0.7,3&#10;&#9;c-0.7,2.5-2.5,3.9-4.9,4.5c-2.8,0.7-5.3,0.4-7.5-1.6c-1.3-1.2-2.2-2.7-2.4-4.4c-0.2-2-0.3-4-0.3-6c0-7.1-0.1-14.2-0.1-21.2&#10;&#9;c0-0.2-0.1-0.3-0.1-0.5c0-8.5,0-16.9,0.1-25.4c0.3-1.3,0.5-2.6,1-3.8c1.1-2.8,3.6-3.3,6.1-3.3c4.1-0.1,7.3,1.3,8.2,5.8&#10;&#9;c0.2,1.2,0.3,2.3,0.4,3.5c0,3.5,0,7.1,0,10.6C105.1,264.3,105.1,264.9,105.2,265.6z" fill="#3C4197"/>
<path d="M355.1,310.7c-1.5,0-3-0.1-4.5-0.1c-2,0-3.5-0.8-4.6-2.5c-0.1-0.3-0.1-0.6-0.2-0.9c-0.4-1.8-0.6-3.5,0.2-5.2&#10;&#9;c0.4-0.9,1.1-1.6,1.6-2.4c1.2-0.3,2.4-0.5,3.6-0.8c0.9,0,1.8,0,2.6,0c8.6,0,17.3,0,25.9,0c0.4,0,0.8-0.1,1.2-0.2c0,0,0,0,0,0&#10;&#9;c0-0.4,0.1-0.9,0.1-1.3c0-5.8,0-11.6,0-17.5c0-0.6,0.1-1.1,0.1-1.7c4-0.8,8-1.6,12-2.5c1-0.2,2-0.4,3.2-0.7c0,3.3,0,6.5,0,9.6&#10;&#9;c0,3.6,0,7.2,0,10.8c-0.1,2.7-0.4,5.4-0.2,8.1c0.1,2.5-0.9,4.2-2.9,5.6c-1.4,1-3,1.5-4.8,1.4c-1.5-0.1-3.1,0-4.7,0&#10;&#9;c-2.6,0.1-5.2,0.1-7.7,0.2c-4.1,0-8.3,0-12.4,0C360.8,310.8,357.9,310.7,355.1,310.7z" fill="#3C4197"/>
<path d="M186.1,192.6c3.6-1.9,7.1-3.7,10.7-5.6c1.5-0.8,3-1.4,4.6-2.2c3.1-1.5,6.1-1.3,9.2,0.1&#10;&#9;c7.5,3.4,15,6.8,22.5,10.2c1.9,0.9,3.8,1.8,5.7,2.7c1.7,0.8,2.4,2.3,2.5,4c0.2,3.3,0.2,6.7,0.2,10.1c0,2.1,0,4.2,0,6.6&#10;&#9;c-1.2-0.5-2-0.8-2.9-1.1c-5.4-2.4-10.8-4.7-16.1-7.1c-5.7-2.5-11.3-5-17-7.5c-0.1,0-0.2,0-0.2,0c-0.1-0.1-0.2-0.3-0.4-0.4&#10;&#9;c-6.1-3.1-12.2-6.2-18.3-9.3C186.5,193,186.3,192.8,186.1,192.6z" fill="#C12480"/>
<path d="M360.8,255.7c-3.3,0-6.5,0-9.8-0.2c-1,0-2-0.6-2.9-0.9c-2.3-1.7-2.6-4-2.1-6.5c0.5-2.2,2.2-3.3,4.3-3.8&#10;&#9;c1.2-0.3,2.4-0.3,3.7-0.4c2.7-0.1,5.3-0.2,8-0.2c8.8,0,17.6,0,26.3,0.1c1.3,0,2.5,0.2,3.8,0.4c2.2,0.3,3.3,1.8,3.7,3.8&#10;&#9;c0.2,0.7,0.2,1.5,0.3,2.2c0,3.6,0,7.2,0,10.8c-4.8,1-9.7,1.9-14.6,2.9c-0.1-2.7-0.3-5.4-0.4-8.1c-2.5,0-4.9,0-7.4,0&#10;&#9;C369.4,255.7,365.1,255.7,360.8,255.7z" fill="#3C4197"/>
<path d="M186.1,192.6c0.2,0.1,0.4,0.3,0.6,0.4c6.1,3.1,12.2,6.2,18.3,9.3c0.1,0.1,0.2,0.3,0.4,0.4&#10;&#9;c-1.6,0.7-3.2,1.3-4.8,2.1c-3.1,1.5-6.2,3-9.3,4.5c-4.7,2.2-9.3,4.4-14,6.7c-1.9,0.9-3.7,1.8-5.5,2.7c-0.1-0.3-0.3-0.5-0.3-0.8&#10;&#9;c0-6.1,0-12.1,0-18.2c0-0.4,0.1-0.8,0.1-1.2c4.7-2,9.4-4,14.1-5.9C185.8,192.6,185.9,192.7,186.1,192.6z" fill="#E02083"/>
<path d="M204.1,150.3c0.2-0.1,0.5-0.2,0.7-0.3c3.8,2.2,7.6,4.3,11.4,6.5c0.4,0.2,0.7,0.9,0.7,1.4&#10;&#9;c0.1,3.8,0.2,7.7,0.3,11.5c0,0,0,0,0,0c-3.4,2.2-6.9,4.5-10.3,6.8c-0.7,0.5-1.2,0.5-1.9,0.1c-3.6-2.1-7.3-4.1-11-6.1&#10;&#9;c0-4.2-0.1-8.4-0.1-12.6c0-0.2,0.2-0.4,0.3-0.6c3.2-2.1,6.4-4.2,9.6-6.3C204,150.7,204,150.5,204.1,150.3z" fill="#C12480"/>
<path d="M329.8,254.2c0.1-1.6,0.1-3.3,0.3-4.9c0.4-2.9,2.3-4.4,5-5.1c1-0.3,2.1-0.2,3.2-0.3c3.1,0.5,5.5,1.9,6.3,5.2&#10;&#9;c0.4,1.5,0.6,3.1,0.6,4.6c0.1,4.2,0.1,8.4,0,12.6c0,1.4-0.3,2.8-0.5,4.2c-1.3,1.5-3.1,1.5-4.8,1.8c-3,0.6-6.1,1.3-9.1,1.9&#10;&#9;c-0.3,0.1-0.5,0.1-1.1,0.1c0-2.6,0-5.2,0-7.7C329.8,262.6,329.8,258.4,329.8,254.2z" fill="#3D4297"/>
<path d="M341.6,309.6c-3.8,2-7.5,1.2-10.7-2.4c-1-2.4-0.9-5-1-7.5c-0.1-3.1-0.1-6.2-0.1-9.3c0.5-1.7,1.8-2.4,3.5-2.6&#10;&#9;c3.7-0.6,7.3-1.4,10.9-2.1c0.2,5.1,0.4,10.1,0.6,15.2C345,304.3,344.5,307.4,341.6,309.6z" fill="#3D4297"/>
<path d="M298.9,295.2c4.4-0.9,8.7-1.8,13-2.6c2.1-0.4,3.8,0.4,4.9,2.4c1.1,2.1,2.3,4.2,3.2,6.4&#10;&#9;c1.1,2.8,0.4,4.7-2.1,6.5c-1.7,1.2-3.5,2.1-5.6,2.4c-3.1,0.3-5.4-0.9-6.9-3.6c-1.8-3.2-3.6-6.4-5.4-9.6&#10;&#9;C299.7,296.6,299.3,296,298.9,295.2z" fill="#3F4496"/>
<path d="M-283.2,230.8c-0.1-3.8-0.1-7.7-0.3-11.5c0-0.5-0.3-1.2-0.7-1.4c-3.8-2.2-7.6-4.4-11.4-6.5&#10;&#9;c-0.1-0.4-0.3-0.8-0.5-1.4c2.9,0.6,3.8-2,5.6-3.2c1-0.6,1.8-1.6,2.8-2.4c5.5,4.9,11,9.8,16.4,14.8c0,0.1-0.1,0.2-0.1,0.3&#10;&#9;c-3.7-0.3-7.4-0.7-11.2-1.1c1.8,2.6,3.5,5,5.4,7.6C-279.2,227.5-281.2,229.2-283.2,230.8z" fill="#FEFEFE"/>
<path d="M-234.3,249.1c0.2-1.4,0.5-2.8,0.5-4.2c0.1-4.2,0.1-8.4,0-12.6c0-1.5-0.3-3.1-0.6-4.6&#10;&#9;c-0.8-3.3-3.2-4.7-6.3-5.2c0.2-0.5,0.4-1.2,0.8-1.5c1.4-1.2,2.9-2.3,4.5-3.6c0.4,1.4,0.7,2.5,1,3.5c0.7-0.4,1.4-0.8,2-1.1&#10;&#9;c0.9-0.6,1.8-0.6,2.7,0.1c0.4,0.3,1.2,0.2,1.9,0.2c0.9,0,1.9-0.9,2.7,0.4c0.1,0.2,0.8,0.1,1.3,0.1c2.6-0.1,5.1-0.3,7.9-0.5&#10;&#9;c-0.3,0.8-0.6,1.5-0.9,2.2c-2.7,0.1-5.3,0.1-8,0.2c-1.2,0.1-2.5,0.1-3.7,0.4c-2.1,0.5-3.8,1.6-4.3,3.8c-0.5,2.5-0.2,4.8,2.1,6.5&#10;&#9;c0,0.1,0,0.3-0.1,0.3c-0.9,1.5-0.9,1.5,0.8,1.9c0.3,0.1,0.6,0.4,0.7,0.7c0.9,2.7,1.7,5.5,2.5,8.2c0.1,0.3-0.2,0.9-0.5,1.1&#10;&#9;c-1.4,0.8-2.8,1.4-4.3,2.1c1.4,0.7,2.7,1.4,4,2c0,0.1,0,0.2,0,0.3c-2-0.1-4-0.2-6.1-0.4C-234.1,249.5-234.2,249.2-234.3,249.1z" fill="#FEFEFE"/>
<path d="M-254.7,282.6c0.5-0.6,1-1.2,1.4-1.9c2.8-4.7,5.6-9.5,8.4-14.3c0.2-0.4,0.5-0.7,0.8-1.2&#10;&#9;c0.2,0.4,0.3,0.7,0.4,1c0.6,2.6,1.1,5.3,1.8,7.9c0.7,2.9,1.5,5.9,2.2,9c-4.4,0-8.7,0-13.2,0c0.1,0.8,0.2,1.4,0.3,2&#10;&#9;c-0.1,0-0.1,0.1-0.2,0.1C-253.4,284.3-254.1,283.5-254.7,282.6z" fill="#FEFEFE"/>
<path d="M-206.7,277.4c0,3.1,0,6.2,0.1,9.3c0.1,2.5,0,5.1,1,7.5c-1.4,1.2-3.1,1.2-4.8,1.5c-0.8,0.1-1.7,0.1-2.8,0.1&#10;&#9;c-0.5-4.7-0.9-9.5-1.4-14.5c1.3,0.7,2.4,1.2,3.7,1.9c-0.5-1.2-0.8-2-1.3-3.1C-210.3,279.2-208.5,278.3-206.7,277.4z" fill="#FEFEFE"/>
<path d="M-296.4,213.3c3.7,2,7.3,4,11,6.1c0.7,0.4,1.2,0.4,1.9-0.1c3.4-2.3,6.9-4.5,10.3-6.8&#10;&#9;c0.4,0.4,0.8,0.8,1.2,1.1c0.8,0.6,0.8,1.1,0.1,1.9c-2.6,2.7-5.6,4.4-9.2,5.5c-2.2,0.7-4.4,1.2-6.8,1.2c-0.3,0-0.7-0.1-1-0.3&#10;&#9;c-3-2.2-6-4.4-9.1-6.6c0.4-0.7,0.8-1.3,1.2-2c0,0,0,0,0,0C-296.5,213.3-296.4,213.3-296.4,213.3z" fill="#FEFEFE"/>
<path d="M265.1,302.4c-1.1,2-1.8,3.8-2.9,5.3c-1.6,2.3-3.8,3.1-6.7,2.7c-3.6-0.5-6.5-2.7-8-6&#10;&#9;C253.3,303.8,259,303.1,265.1,302.4z" fill="#42479A"/>
<path d="M-293.4,203.9c-1.2,0.1-2.4,0.2-3.7,0.4c-1.5,0.2-1.6,0.2-1.6-1.3c0.1-3.4,0.1-6.8,0.2-10.1&#10;&#9;c0-1.1,0.2-2.3,0.3-3.6c1.6,0.7,3.1,1.4,4.6,2.1C-293.5,195.5-293.4,199.7-293.4,203.9L-293.4,203.9z" fill="#FEFEFE"/>
<path d="M-210.1,279.5c2.9-2.3,3.4-5.4,3.3-8.8c-0.3-5.1-0.4-10.1-0.6-15.2c0.7-0.6,1.5-1.2,2.4-2&#10;&#9;c-0.2,4.1-0.4,7.9-0.5,11.8c0.1,0,0.2,0,0.2,0.1c0.4-1,0.8-1.9,1.1-2.9c0.1,0,0.1,0,0.2,0c0,2.3,0,4.6,0,7c-0.6,0.8-1.2,1.5-1.6,2.4&#10;&#9;c-0.8,1.7-0.6,3.5-0.2,5.2c0.1,0.3,0.1,0.6,0.2,0.9c0,1.1,0,2.3,0,3.7c-1.4-0.5-2.6-0.9-3.8-1.4&#10;&#9;C-209.8,280.2-209.9,279.8-210.1,279.5z" fill="#FEFEFE"/>
<path d="M-247.2,194.2c-0.1,0.1-0.1,0.3-0.2,0.4c-3.2,2.1-6.4,4.2-9.6,6.3c-0.1,0-0.2,0-0.3,0&#10;&#9;c-0.3-1.1-0.6-2.1-0.9-3.2c-0.2-0.6,0-1,0.6-1.3c2.3-1.1,4.5-2.2,6.7-3.3C-249.8,192.5-248.4,193-247.2,194.2z" fill="#FEFEFE"/>
<path d="M-222.7,244.8c1.8-0.2,3.6-0.4,5.5-0.5c0.3,0,0.7,0.3,1,0.5c-1.2,1.3-2.4,2.7-3.7,4&#10;&#9;c-0.4,0.4-0.9,0.7-1.5,1.2c-1-1.6-1.9-3.2-2.9-4.8C-223.7,245-223.2,244.9-222.7,244.8z" fill="#FEFEFE"/>
<path d="M-214.8,222.5c-0.2-2.7-0.3-5.5-0.8-8.2c-0.3-1.9-1-3.8-1.6-5.7c-0.2-0.5-0.4-1-0.7-1.7c1.2,0,2.2,0,3.3,0&#10;&#9;c0,4.8,0,9.6,0,14.4C-214.6,221.7-214.7,222.1-214.8,222.5z" fill="#FCFCFC"/>
<path d="M-199.2,247.1c0.1,0.4,0.1,0.8,0.1,1.3c0,14.1,0,28.1,0,42.2c0,1.1,0,2.2,0,3.2c-0.1-0.5-0.2-0.9-0.2-1.4&#10;&#9;C-199.2,277.3-199.2,262.2-199.2,247.1z" fill="#FCFCFC"/>
<path d="M-204.6,233.7c-13.1,0-26.2,0-39.3,0c0.4-0.1,0.8-0.2,1.3-0.2c12.3,0,24.5,0,36.8,0&#10;&#9;C-205.4,233.5-205,233.6-204.6,233.7z" fill="#FCFCFC"/>
<path d="M-173,294.8c0-10.3,0-20.5,0-30.8c0-0.4,0.1-0.8,0.1-1.3c0,10.3,0,20.5,0,30.8&#10;&#9;C-172.9,293.9-173,294.3-173,294.8z" fill="#FDFDFD"/>
<path d="M-271.5,288c0,0.4,0.1,0.8,0.1,1.2c0,9.1,0,18.2,0,27.3c0,0.3,0.5,1-0.4,0.9c0.1-0.5,0.3-1,0.3-1.5&#10;&#9;C-271.5,306.6-271.5,297.3-271.5,288z" fill="#FCFCFC"/>
<path d="M584,334.2c-0.4,0.1-0.8,0.2-1.2,0.2c-8.6,0-17.3,0-25.9,0c-0.9,0-1.8,0-2.6,0c0.4-0.1,0.8-0.2,1.1-0.2&#10;&#9;C564.9,334.2,574.4,334.2,584,334.2z" fill="#FDFDFD"/>
<path d="M-207.1,322.8c0.2-0.1,0.4-0.2,0.6-0.2c8.8,0,17.6,0,26.4,0c-0.4,0.1-0.9,0.2-1.3,0.2&#10;&#9;C-189.9,322.9-198.5,322.8-207.1,322.8z" fill="#FCFCFC"/>
<path d="M-252.6,283.1c0,8.5,0,16.9-0.1,25.4c0-0.3-0.1-0.7-0.1-1c0-7.7,0-15.5,0-23.2&#10;&#9;C-252.7,283.8-252.6,283.4-252.6,283.1z" fill="#FCFCFC"/>
<path d="M596.8,249.6c0.1-0.4,0.2-0.8,0.2-1.2c0-4.8,0-9.6,0-14.4c0.1,0,0.2,0,0.3,0c0,0.4-0.1,0.8-0.1,1.2&#10;&#9;c0,6.1,0,12.1,0,18.2c0,0.3,0.2,0.5,0.3,0.8c-0.2-0.1-0.4-0.3-0.5-0.4C596.9,252.4,596.8,251,596.8,249.6z" fill="#F8F3F6"/>
<path d="M-193.5,271.9c0,7.5,0,15,0,22.5c-0.1-0.3-0.2-0.7-0.2-1c0-6.8,0-13.7,0-20.5&#10;&#9;C-193.6,272.6-193.5,272.3-193.5,271.9z" fill="#FDFDFD"/>
<path d="M574.1,340.3c0,0.6-0.1,1.1-0.1,1.7c0,5.8,0,11.6,0,17.5c0,0.4-0.1,0.9-0.1,1.3c0-6.4,0-12.9,0-19.3&#10;&#9;C573.9,341.1,574.1,340.7,574.1,340.3z" fill="#FDFDFD"/>
<path d="M-183.8,150c-6.1,0-12.3,0-18.4,0c-0.4,0-0.9,0.2-1.3,0.3c0.3-0.2,0.6-0.4,1-0.4c5.9,0,11.7,0,17.6,0&#10;&#9;C-184.5,149.8-184.2,149.9-183.8,150z" fill="#FCFCFC"/>
<path d="M-265.9,280.9c0.1,2.4,0.1,4.9,0.2,7.3c0,2.2,0,4.3,0,6.5c-0.1-0.3-0.2-0.5-0.2-0.8&#10;&#9;C-265.9,289.5-265.9,285.2-265.9,280.9z" fill="#FCFCFC"/>
<path d="M596.8,159.3c0.1,0,0.2,0,0.3,0c-0.1,0.2-0.3,0.4-0.3,0.6c0,4.2,0,8.4,0.1,12.6c-0.1,0-0.2,0-0.3,0&#10;&#9;c0-4.2,0-8.3,0-12.5C596.6,159.8,596.7,159.6,596.8,159.3z" fill="#FCFCFC"/>
<path d="M360.8,255.7c4.3,0,8.6,0,12.9,0C369.4,255.7,365.1,255.7,360.8,255.7z" fill="#FDFDFD"/>
<path d="M290.9,572.1c0,4.2,0,8.3,0,12.5c-0.1-0.1-0.3-0.3-0.3-0.4c0-3.9,0-7.7,0-11.6&#10;&#9;C290.6,572.4,290.8,572.3,290.9,572.1z" fill="#FCFCFC"/>
<path d="M-224.2,352.9c0-0.6-0.1-1.3-0.1-1.9c0-3.5,0-7.1,0-10.6c0.1,0.3,0.2,0.6,0.2,0.9&#10;&#9;C-224.2,345.2-224.2,349-224.2,352.9z" fill="#FDFDFD"/>
<path d="M-184.7,295c0.1,2.4,0.1,4.8,0.2,7.1c0,1.6,0,3.1,0,4.7c-0.1-0.3-0.2-0.6-0.2-0.9&#10;&#9;C-184.7,302.3-184.7,298.6-184.7,295z" fill="#FDFDFD"/>
<path d="M573.8,311.6c0-3.6,0-7.2,0-10.8c0.1,0.3,0.2,0.6,0.2,0.9c0,3,0,6,0,9C574,311,573.9,311.3,573.8,311.6z" fill="#FCFCFC"/>
<path d="M563.8,274.4c0-3.6,0-7.2,0-10.8c0.1,0.5,0.2,1.1,0.2,1.6c0,2.6,0,5.3,0,7.9&#10;&#9;C564,273.6,563.9,274,563.8,274.4z" fill="#FCFCFC"/>
<path d="M-188.3,334.1c0.9,0,1.7-0.1,2.6-0.1c2.7,0,5.5,0,8.2,0c-0.3,0.1-0.7,0.2-1,0.2&#10;&#9;C-181.8,334.1-185,334.1-188.3,334.1z" fill="#FDFDFD"/>
<path d="M549.9,389.3c2.9,0.1,5.8,0.1,8.7,0.2c-2.6,0-5.2,0-7.8,0C550.5,389.5,550.2,389.3,549.9,389.3z" fill="#FCFCFC"/>
<path d="M-214.7,370c0-2.7,0-5.4,0-8.1c0.1,2.2,0.1,4.3,0.2,6.5C-214.5,368.9-214.6,369.4-214.7,370z" fill="#FDFDFD"/>
<path d="M563.8,373.4c2.6-0.1,5.2-0.1,7.7-0.2c-1.1,0.1-2.2,0.2-3.3,0.2C566.7,373.4,565.3,373.4,563.8,373.4z" fill="#FCFCFC"/>
<path d="M-180.1,311.3c0.1,2.3,0.1,4.7,0.2,7c-0.1-1.5-0.1-3-0.2-4.5C-180.1,313-180.1,312.1-180.1,311.3z" fill="#FDFDFD"/>
</svg>